<svg width="25" height="24" viewBox="0 0 25 24" fill="none" xmlns="http://www.w3.org/2000/svg">
<path fill-rule="evenodd" clip-rule="evenodd" d="M15.2305 2.8239C15.1374 2.358 14.7292 2.02199 14.2541 2.02003C13.779 2.01807 13.368 2.35071 13.271 2.81583C13.0305 3.96919 12.5874 5.07078 11.9623 6.06949C11.6693 6.53764 11.8113 7.15468 12.2794 7.44768C12.7476 7.74069 13.3646 7.5987 13.6576 7.13055C13.8727 6.78686 14.0699 6.43301 14.2485 6.07047C15.0542 7.70827 16.2274 9.1826 17.6253 10.3009C19.4456 11.7572 20.25 13.3906 20.25 15.02L20.25 15.0242C20.2549 16.2084 19.908 17.3675 19.2534 18.3544C18.5988 19.3413 17.6659 20.1116 16.573 20.5676C15.4801 21.0237 14.2763 21.145 13.1144 20.9161C11.9524 20.6873 10.8846 20.1186 10.0463 19.2821C9.65532 18.892 9.02215 18.8927 8.63207 19.2837C8.24198 19.6747 8.24269 20.3078 8.63365 20.6979C9.75238 21.8141 11.1773 22.573 12.7279 22.8784C14.2784 23.1838 15.8848 23.022 17.3432 22.4134C18.8017 21.8048 20.0466 20.7768 20.9201 19.4599C21.7933 18.1435 22.2561 16.5976 22.25 15.018C22.2493 12.6482 21.0536 10.4823 18.8747 8.73915C17.0508 7.28004 15.6825 5.0838 15.2305 2.8239ZM8.23058 5.10369C8.1371 4.63626 7.72668 4.2998 7.25 4.2998C6.77332 4.2998 6.3629 4.63626 6.26942 5.10369C6.02579 6.32186 5.30247 7.50521 4.3353 8.27894C2.99214 9.35347 2.25 10.7438 2.25 12.2498C2.25 15.0091 4.48484 17.2998 7.25 17.2998C10.0152 17.2998 12.25 15.0091 12.25 12.2498C12.25 10.7258 11.4907 9.36063 10.1721 8.28494C9.20318 7.49448 8.47292 6.3154 8.23058 5.10369ZM5.5847 9.84067C6.23735 9.31855 6.80461 8.66925 7.2531 7.94504C7.70197 8.66577 8.26647 9.31142 8.90787 9.83467C9.86928 10.619 10.25 11.4538 10.25 12.2498C10.25 13.9305 8.88484 15.2998 7.25 15.2998C5.61516 15.2998 4.25 13.9305 4.25 12.2498C4.25 11.4558 4.62786 10.6061 5.5847 9.84067Z" fill="#020617"/>
</svg>
