<svg width="20" height="16" viewBox="0 0 20 16" fill="none" xmlns="http://www.w3.org/2000/svg">
<path fill-rule="evenodd" clip-rule="evenodd" d="M7.72727 0C7.45747 0 7.20161 0.117176 7.02889 0.319836L5.02875 2.66667H2.72727C2.00396 2.66667 1.31026 2.94762 0.7988 3.44772C0.287337 3.94781 0 4.62609 0 5.33333V13.3333C0 14.0406 0.287337 14.7189 0.7988 15.219C1.31026 15.719 2.00395 16 2.72727 16H17.2727C17.996 16 18.6897 15.719 19.2012 15.219C19.7127 14.7189 20 14.0406 20 13.3333V5.33333C20 4.62609 19.7127 3.94781 19.2012 3.44772C18.6897 2.94762 17.996 2.66667 17.2727 2.66667H14.9712L12.9711 0.319836C12.7984 0.117176 12.5425 0 12.2727 0H7.72727ZM6.15293 4.12461L8.15307 1.77778H11.8469L13.8471 4.12461C14.0198 4.32727 14.2757 4.44444 14.5455 4.44444H17.2727C17.5138 4.44444 17.7451 4.53809 17.9156 4.70479C18.086 4.87149 18.1818 5.09759 18.1818 5.33333V13.3333C18.1818 13.5691 18.086 13.7952 17.9156 13.9619C17.7451 14.1286 17.5138 14.2222 17.2727 14.2222H2.72727C2.48617 14.2222 2.25494 14.1286 2.08445 13.9619C1.91396 13.7952 1.81818 13.5691 1.81818 13.3333V5.33333C1.81818 5.09759 1.91396 4.87149 2.08445 4.70479C2.25494 4.53809 2.48617 4.44444 2.72727 4.44444H5.45455C5.72435 4.44444 5.98021 4.32727 6.15293 4.12461ZM8.18182 8.88889C8.18182 7.90705 8.99585 7.11111 10 7.11111C11.0042 7.11111 11.8182 7.90705 11.8182 8.88889C11.8182 9.87073 11.0042 10.6667 10 10.6667C8.99585 10.6667 8.18182 9.87073 8.18182 8.88889ZM10 5.33333C7.99169 5.33333 6.36364 6.92521 6.36364 8.88889C6.36364 10.8526 7.99169 12.4444 10 12.4444C12.0083 12.4444 13.6364 10.8526 13.6364 8.88889C13.6364 6.92521 12.0083 5.33333 10 5.33333Z" fill="#0D50CD"/>
</svg>
