<svg width="24" height="24" viewBox="0 0 24 24" fill="none" xmlns="http://www.w3.org/2000/svg">
<path fill-rule="evenodd" clip-rule="evenodd" d="M14.9805 2.8239C14.8874 2.358 14.4792 2.02199 14.0041 2.02003C13.529 2.01807 13.118 2.35071 13.021 2.81583C12.7805 3.96919 12.3374 5.07078 11.7123 6.06949C11.4193 6.53764 11.5613 7.15468 12.0294 7.44768C12.4976 7.74069 13.1146 7.5987 13.4076 7.13055C13.6227 6.78686 13.8199 6.43301 13.9985 6.07047C14.8042 7.70827 15.9774 9.1826 17.3753 10.3009C19.1956 11.7572 20 13.3906 20 15.02L20 15.0242C20.0049 16.2084 19.658 17.3675 19.0034 18.3544C18.3488 19.3413 17.4159 20.1116 16.323 20.5676C15.2301 21.0237 14.0263 21.145 12.8644 20.9161C11.7024 20.6873 10.6346 20.1186 9.79628 19.2821C9.40532 18.892 8.77215 18.8927 8.38207 19.2837C7.99198 19.6747 7.99269 20.3078 8.38365 20.6979C9.50238 21.8141 10.9273 22.573 12.4779 22.8784C14.0284 23.1838 15.6348 23.022 17.0932 22.4134C18.5517 21.8048 19.7966 20.7768 20.6701 19.4599C21.5433 18.1435 22.0061 16.5976 22 15.018C21.9993 12.6482 20.8036 10.4823 18.6247 8.73915C16.8008 7.28004 15.4325 5.0838 14.9805 2.8239ZM7.98058 5.10369C7.8871 4.63626 7.47668 4.2998 7 4.2998C6.52332 4.2998 6.1129 4.63626 6.01942 5.10369C5.77579 6.32186 5.05247 7.50521 4.0853 8.27894C2.74214 9.35347 2 10.7438 2 12.2498C2 15.0091 4.23484 17.2998 7 17.2998C9.76515 17.2998 12 15.0091 12 12.2498C12 10.7258 11.2407 9.36063 9.92213 8.28494C8.95318 7.49448 8.22292 6.3154 7.98058 5.10369ZM5.3347 9.84067C5.98735 9.31855 6.55461 8.66925 7.0031 7.94504C7.45197 8.66577 8.01647 9.31142 8.65787 9.83467C9.61928 10.619 10 11.4538 10 12.2498C10 13.9305 8.63484 15.2998 7 15.2998C5.36516 15.2998 4 13.9305 4 12.2498C4 11.4558 4.37786 10.6061 5.3347 9.84067Z" fill="#0D50CD"/>
</svg>
