<?xml version="1.0" encoding="UTF-8"?>
<svg id="Layer_1" data-name="Layer 1" xmlns="http://www.w3.org/2000/svg" viewBox="0 0 267.66 332.28">
  <path d="M102.73,62.51C56.52,108.91,6.13,176.86,39.06,245.11c36.61,75.87,147.09,77.95,187.43,4.33,35.07-64-6.16-131.87-51.51-177.23-25.54,20.67-49.68,44.17-68.2,71.51-15.66,23.1-30.13,53.59-12.89,80.02,20.87,31.98,72.2,26.59,85.41-9.49,10.71-29.25-7.41-57.53-24.49-79.89l20.24-18.73c16.95,21.16,33.52,48.88,35.2,76.64,4.46,73.67-88.36,111.37-134.8,53.91-31.26-38.68-16.32-82.71,9.07-119.23,24.4-35.11,57.06-64.57,90.79-90.49,26.32,21.97,50.06,48.12,67.48,77.83,31.69,54.05,36.06,116.62-4.38,167.55-58.61,73.83-173.19,65.08-220.48-16.09-27.42-47.06-21.26-99.68,4-145.97C47.53,72.82,88.28,34.98,127.88,0h1.48s22.98,17.97,22.98,17.97c-9.89,8.23-19.92,16.34-29.47,24.98-6.94,6.28-13.56,12.94-20.14,19.55Z"/>
</svg>