<svg width="21" height="22" viewBox="0 0 21 22" fill="none" xmlns="http://www.w3.org/2000/svg">
<path fill-rule="evenodd" clip-rule="evenodd" d="M11.3639 0.210648C11.0028 -0.0702159 10.4972 -0.0702159 10.1361 0.210648L1.13606 7.21065C0.892473 7.4001 0.75 7.69141 0.75 8V19C0.75 19.7957 1.06607 20.5587 1.62868 21.1213C2.19129 21.6839 2.95435 22 3.75 22H7.75H13.75H17.75C18.5457 22 19.3087 21.6839 19.8713 21.1213C20.4339 20.5587 20.75 19.7957 20.75 19V8C20.75 7.69141 20.6075 7.4001 20.3639 7.21065L11.3639 0.210648ZM14.75 20H17.75C18.0152 20 18.2696 19.8946 18.4571 19.7071C18.6446 19.5196 18.75 19.2652 18.75 19V8.48908L10.75 2.26686L2.75 8.48908V19C2.75 19.2652 2.85536 19.5196 3.04289 19.7071C3.23043 19.8946 3.48478 20 3.75 20H6.75V11C6.75 10.4477 7.19772 10 7.75 10H13.75C14.3023 10 14.75 10.4477 14.75 11V20ZM8.75 20V12H12.75V20H8.75Z" fill="#020617"/>
</svg>
