<svg width="16" height="16" viewBox="0 0 16 16" fill="none" xmlns="http://www.w3.org/2000/svg">
<path fill-rule="evenodd" clip-rule="evenodd" d="M13.9333 7H16V9H13.9333C13.4667 11.5333 11.5333 13.5333 9 13.9333V16H7V13.9333C4.46667 13.4667 2.46667 11.5333 2.06667 9H0V7H2.06667C2.53333 4.46667 4.46667 2.46667 7 2.06667V0H9V2.06667C11.5333 2.53333 13.5333 4.46667 13.9333 7ZM4 8C4 10.2 5.8 12 8 12C10.2 12 12 10.2 12 8C12 5.8 10.2 4 8 4C5.8 4 4 5.8 4 8ZM10 8C10 8.53043 9.78929 9.03914 9.41421 9.41421C9.03914 9.78929 8.53043 10 8 10C7.46957 10 6.96086 9.78929 6.58579 9.41421C6.21071 9.03914 6 8.53043 6 8C6 7.46957 6.21071 6.96086 6.58579 6.58579C6.96086 6.21071 7.46957 6 8 6C8.53043 6 9.03914 6.21071 9.41421 6.58579C9.78929 6.96086 10 7.46957 10 8Z" fill="#0D50CD"/>
</svg>
