<svg width="44" height="44" viewBox="0 0 44 44" fill="none" xmlns="http://www.w3.org/2000/svg">
<path fill-rule="evenodd" clip-rule="evenodd" d="M22.6357 3.42181C22.1269 2.91303 21.302 2.91303 20.7932 3.42181L12.1075 12.1075C11.5986 12.6163 11.5986 13.4412 12.1075 13.9501C12.6163 14.4588 13.4412 14.4588 13.95 13.9501L20.4116 7.48846V27.5046C20.4116 28.2242 20.9949 28.8075 21.7144 28.8075C22.434 28.8075 23.0173 28.2242 23.0173 27.5046V7.48846L29.479 13.9501C29.9877 14.4588 30.8126 14.4588 31.3213 13.9501C31.8303 13.4412 31.8303 12.6163 31.3213 12.1075L22.6357 3.42181ZM7.2381 28.9523C8.03759 28.9523 8.68572 29.6003 8.68572 30.4V34.7428C8.68572 36.3462 9.97598 37.6381 11.5704 37.6381H31.8511C33.4484 37.6381 34.7429 36.3433 34.7429 34.7428V30.4C34.7429 29.6003 35.3911 28.9523 36.1905 28.9523C36.9899 28.9523 37.6381 29.6003 37.6381 30.4V34.7428C37.6381 37.9392 35.0503 40.5333 31.8511 40.5333H11.5704C8.36779 40.5333 5.79048 37.9363 5.79048 34.7428V30.4C5.79048 29.6003 6.43861 28.9523 7.2381 28.9523Z" fill="#0D50CD"/>
</svg>
